<svg xmlns="http://www.w3.org/2000/svg" width="90" height="380" viewBox="0 0 90 380">
  <rect width="90" height="380" fill="#faf3e6"/>
  <rect x="1" width="6" height="380" fill="#f3d6cb"/>
  <line x1="48" y1="0" x2="48" y2="380" stroke="#ded1a6" stroke-width="1"/>
  <line x1="52" y1="0" x2="52" y2="380" stroke="#ded1a6" stroke-width="1"/>

  <g transform="translate(26,26)">
    <line x1="0" y1="20" x2="0" y2="0" stroke="#8fa06d" stroke-width="1.6"/>
    <ellipse cx="-4.5" cy="16" rx="4.2" ry="2.1" fill="#8fa06d" transform="rotate(-25 -4.5 16)"/>
    <ellipse cx="4.5" cy="10" rx="4.2" ry="2.1" fill="#8fa06d" transform="rotate(25 4.5 10)"/>
    <circle cx="0" cy="-4.2" r="3.4" fill="#e79a8d"/>
    <circle cx="4" cy="-1.3" r="3.4" fill="#e79a8d"/>
    <circle cx="2.5" cy="3.4" r="3.4" fill="#e79a8d"/>
    <circle cx="-2.5" cy="3.4" r="3.4" fill="#e79a8d"/>
    <circle cx="-4" cy="-1.3" r="3.4" fill="#e79a8d"/>
    <circle cx="0" cy="0" r="1.9" fill="#f2c451"/>
  </g>

  <g transform="translate(26,121)">
    <line x1="0" y1="20" x2="0" y2="0" stroke="#8fa06d" stroke-width="1.6"/>
    <ellipse cx="-4.5" cy="16" rx="4.2" ry="2.1" fill="#8fa06d" transform="rotate(-25 -4.5 16)"/>
    <ellipse cx="4.5" cy="10" rx="4.2" ry="2.1" fill="#8fa06d" transform="rotate(25 4.5 10)"/>
    <circle cx="0" cy="-4.2" r="3.4" fill="#f0cf6a"/>
    <circle cx="4" cy="-1.3" r="3.4" fill="#f0cf6a"/>
    <circle cx="2.5" cy="3.4" r="3.4" fill="#f0cf6a"/>
    <circle cx="-2.5" cy="3.4" r="3.4" fill="#f0cf6a"/>
    <circle cx="-4" cy="-1.3" r="3.4" fill="#f0cf6a"/>
    <circle cx="0" cy="0" r="1.9" fill="#c98a56"/>
  </g>

  <g transform="translate(26,216)">
    <line x1="0" y1="20" x2="0" y2="0" stroke="#8fa06d" stroke-width="1.6"/>
    <ellipse cx="-4.5" cy="16" rx="4.2" ry="2.1" fill="#8fa06d" transform="rotate(-25 -4.5 16)"/>
    <ellipse cx="4.5" cy="10" rx="4.2" ry="2.1" fill="#8fa06d" transform="rotate(25 4.5 10)"/>
    <circle cx="0" cy="-4.2" r="3.4" fill="#f2b9c9"/>
    <circle cx="4" cy="-1.3" r="3.4" fill="#f2b9c9"/>
    <circle cx="2.5" cy="3.4" r="3.4" fill="#f2b9c9"/>
    <circle cx="-2.5" cy="3.4" r="3.4" fill="#f2b9c9"/>
    <circle cx="-4" cy="-1.3" r="3.4" fill="#f2b9c9"/>
    <circle cx="0" cy="0" r="1.9" fill="#f2c451"/>
  </g>

  <g transform="translate(26,311)">
    <line x1="0" y1="20" x2="0" y2="0" stroke="#8fa06d" stroke-width="1.6"/>
    <ellipse cx="-4.5" cy="16" rx="4.2" ry="2.1" fill="#8fa06d" transform="rotate(-25 -4.5 16)"/>
    <ellipse cx="4.5" cy="10" rx="4.2" ry="2.1" fill="#8fa06d" transform="rotate(25 4.5 10)"/>
    <circle cx="0" cy="-4.2" r="3.4" fill="#c9b8e0"/>
    <circle cx="4" cy="-1.3" r="3.4" fill="#c9b8e0"/>
    <circle cx="2.5" cy="3.4" r="3.4" fill="#c9b8e0"/>
    <circle cx="-2.5" cy="3.4" r="3.4" fill="#c9b8e0"/>
    <circle cx="-4" cy="-1.3" r="3.4" fill="#c9b8e0"/>
    <circle cx="0" cy="0" r="1.9" fill="#f2c451"/>
  </g>
</svg>
